<?xml version="1.0" encoding="UTF-8"?>
<svg width="180" height="180" viewBox="0 0 180 180" fill="none" xmlns="http://www.w3.org/2000/svg">
  <!-- Gradient Background -->
  <defs>
    <linearGradient id="gradient" x1="0" y1="0" x2="180" y2="180" gradientUnits="userSpaceOnUse">
      <stop offset="0%" stop-color="#6366F1"/>
      <stop offset="100%" stop-color="#A855F7"/>
    </linearGradient>
  </defs>
  
  <!-- Rounded Rectangle Background -->
  <rect width="180" height="180" rx="45" fill="url(#gradient)"/>
  
  <!-- Letter Q -->
  <path d="M90 45C65.1472 45 45 65.1472 45 90C45 114.853 65.1472 135 90 135C100.068 135 110.458 130.709 118.325 122.843L109.171 113.689C103.713 119.147 96.8564 122.143 90 122.143C72.2714 122.143 57.8571 107.729 57.8571 90C57.8571 72.2714 72.2714 57.8571 90 57.8571C107.729 57.8571 122.143 72.2714 122.143 90C122.143 94.4404 121.242 98.8808 119.44 102.929L129.805 113.294C133.164 106.438 135 98.3504 135 90C135 65.1472 114.853 45 90 45Z" fill="white"/>
  
  <!-- Small Circle -->
  <circle cx="124" cy="124" r="11" fill="white"/>
</svg> 